<svg width="600" height="800" viewBox="0 0 600 800" xmlns="http://www.w3.org/2000/svg">
  <rect width="600" height="800" fill="#f4f4f4" />
  
  <defs>
    <linearGradient id="fuselageGrad" x1="0%" y1="0%" x2="100%" y2="0%">
      <stop offset="0%" style="stop-color:#4a4e54;stop-opacity:1" />
      <stop offset="50%" style="stop-color:#5d6269;stop-opacity:1" />
      <stop offset="100%" style="stop-color:#4a4e54;stop-opacity:1" />
    </linearGradient>
    
    <pattern id="ramPattern" x="0" y="0" width="100" height="100" patternUnits="userSpaceOnUse">
      <path d="M10 10 L30 10 L35 15 L35 30 L10 30 Z" fill="none" stroke="#3d4147" stroke-width="1" opacity="0.5"/>
      <path d="M60 50 L85 50 L90 60 L70 70 Z" fill="none" stroke="#3d4147" stroke-width="1" opacity="0.5"/>
    </pattern>
  </defs>

  <g transform="translate(300, 400)">
    
    <path d="M0 -320 
             L25 -310 L40 -260 
             L60 -180 
             L260 100 
             L260 140 
             L75 80 
             L90 240 
             L160 300 
             L155 330 
             L0 290 
             L-155 330 
             L-160 300 
             L-90 240 
             L-75 80 
             L-260 140 
             L-260 100 
             L-60 -180 
             L-40 -260 L-25 -310 Z" 
          fill="url(#fuselageGrad)" stroke="#222" stroke-width="2" />

    <path d="M0 -320 L25 -310 L40 -260 L60 -180 L260 100 L260 140 L75 80 L90 240 L160 300 L155 330 L0 290 L-155 330 L-160 300 L-90 240 L-75 80 L-260 140 L-260 100 L-60 -180 L-40 -260 L-25 -310 Z" 
          fill="url(#ramPattern)" />

    <path d="M-25 -180 Q0 -230 25 -180 L20 -80 Q0 -60 -20 -80 Z" fill="#1a1a1a" stroke="#444" stroke-width="1" />
    <path d="M-18 -175 Q0 -210 18 -175 L15 -90 Q0 -75 -15 -90 Z" fill="#2c3e50" opacity="0.6" />

    <path d="M-40 -160 L-50 -100 L-50 50" fill="none" stroke="#333" stroke-width="1.5" opacity="0.7" />
    <path d="M40 -160 L50 -100 L50 50" fill="none" stroke="#333" stroke-width="1.5" opacity="0.7" />
    <path d="M-50 50 Q0 70 50 50" fill="none" stroke="#333" stroke-width="1.5" opacity="0.7" />

    <path d="M-35 285 L35 285 L45 310 L0 325 L-45 310 Z" fill="#111" />
    <path d="M-30 290 L30 290 L38 305 L0 315 L-38 305 Z" fill="#222" stroke="#444" stroke-width="0.5" />

    <path d="M-65 100 L-85 240" stroke="#222" stroke-width="3" opacity="0.4" />
    <path d="M65 100 L85 240" stroke="#222" stroke-width="3" opacity="0.4" />

    <g transform="translate(-180, 110) scale(0.4) opacity(0.3)">
       <path d="M0 -50 L 11 -16 L 47 -16 L 18 5 L 29 41 L 0 19 L -29 41 L -18 5 L -47 -16 L -11 -16 Z" fill="#eee"/>
       <rect x="-90" y="-10" width="50" height="20" fill="#eee"/>
       <rect x="40" y="-10" width="50" height="20" fill="#eee"/>
    </g>
  </g>
</svg>